<svg xmlns="http://www.w3.org/2000/svg" width="1092" height="526" viewBox="0 0 1092 526">
<rect width="100%" height="100%" fill="#05070a"/>
<text x="28" y="34" fill="#ffffff" font-size="22" font-family="Arial" font-weight="700">Rubric Category Heatmap</text>
<text x="308.0" y="54" fill="#cfd6e6" font-size="12" font-family="Arial" text-anchor="middle">Sections</text>
<text x="424.0" y="54" fill="#cfd6e6" font-size="12" font-family="Arial" text-anchor="middle">HARA</text>
<text x="540.0" y="54" fill="#cfd6e6" font-size="12" font-family="Arial" text-anchor="middle">ISO 26262</text>
<text x="656.0" y="54" fill="#cfd6e6" font-size="12" font-family="Arial" text-anchor="middle">SOTIF</text>
<text x="772.0" y="54" fill="#cfd6e6" font-size="12" font-family="Arial" text-anchor="middle">ISO 8800</text>
<text x="888.0" y="54" fill="#cfd6e6" font-size="12" font-family="Arial" text-anchor="middle">Engineering</text>
<text x="1004.0" y="54" fill="#cfd6e6" font-size="12" font-family="Arial" text-anchor="middle">Hallucination</text>
<text x="24" y="93" fill="#dce3f2" font-size="12" font-family="Arial">aeb_pedestrian_lifecycle | openai</text>
<rect x="250" y="72" width="111" height="27" rx="5" fill="rgb(0,240,210)" opacity="0.9"/>
<text x="305.5" y="91" fill="#061018" font-size="12" font-family="Arial" font-weight="700" text-anchor="middle">20/20</text>
<rect x="366" y="72" width="111" height="27" rx="5" fill="rgb(50,226,192)" opacity="0.9"/>
<text x="421.5" y="91" fill="#061018" font-size="12" font-family="Arial" font-weight="700" text-anchor="middle">16/20</text>
<rect x="482" y="72" width="111" height="27" rx="5" fill="rgb(0,240,210)" opacity="0.9"/>
<text x="537.5" y="91" fill="#061018" font-size="12" font-family="Arial" font-weight="700" text-anchor="middle">20/20</text>
<rect x="598" y="72" width="111" height="27" rx="5" fill="rgb(0,240,210)" opacity="0.9"/>
<text x="653.5" y="91" fill="#061018" font-size="12" font-family="Arial" font-weight="700" text-anchor="middle">15/15</text>
<rect x="714" y="72" width="111" height="27" rx="5" fill="rgb(0,240,210)" opacity="0.9"/>
<text x="769.5" y="91" fill="#061018" font-size="12" font-family="Arial" font-weight="700" text-anchor="middle">15/15</text>
<rect x="830" y="72" width="111" height="27" rx="5" fill="rgb(0,240,210)" opacity="0.9"/>
<text x="885.5" y="91" fill="#061018" font-size="12" font-family="Arial" font-weight="700" text-anchor="middle">10/10</text>
<rect x="946" y="72" width="111" height="27" rx="5" fill="rgb(0,240,210)" opacity="0.9"/>
<text x="1001.5" y="91" fill="#061018" font-size="12" font-family="Arial" font-weight="700" text-anchor="middle">10/10</text>
<text x="24" y="125" fill="#dce3f2" font-size="12" font-family="Arial">aeb_pedestrian_lifecycle | local_b...</text>
<rect x="250" y="104" width="111" height="27" rx="5" fill="rgb(38,229,196)" opacity="0.9"/>
<text x="305.5" y="123" fill="#061018" font-size="12" font-family="Arial" font-weight="700" text-anchor="middle">17/20</text>
<rect x="366" y="104" width="111" height="27" rx="5" fill="rgb(50,226,192)" opacity="0.9"/>
<text x="421.5" y="123" fill="#061018" font-size="12" font-family="Arial" font-weight="700" text-anchor="middle">16/20</text>
<rect x="482" y="104" width="111" height="27" rx="5" fill="rgb(0,240,210)" opacity="0.9"/>
<text x="537.5" y="123" fill="#061018" font-size="12" font-family="Arial" font-weight="700" text-anchor="middle">20/20</text>
<rect x="598" y="104" width="111" height="27" rx="5" fill="rgb(0,240,210)" opacity="0.9"/>
<text x="653.5" y="123" fill="#061018" font-size="12" font-family="Arial" font-weight="700" text-anchor="middle">15/15</text>
<rect x="714" y="104" width="111" height="27" rx="5" fill="rgb(0,240,210)" opacity="0.9"/>
<text x="769.5" y="123" fill="#061018" font-size="12" font-family="Arial" font-weight="700" text-anchor="middle">15/15</text>
<rect x="830" y="104" width="111" height="27" rx="5" fill="rgb(0,240,210)" opacity="0.9"/>
<text x="885.5" y="123" fill="#061018" font-size="12" font-family="Arial" font-weight="700" text-anchor="middle">10/10</text>
<rect x="946" y="104" width="111" height="27" rx="5" fill="rgb(0,240,210)" opacity="0.9"/>
<text x="1001.5" y="123" fill="#061018" font-size="12" font-family="Arial" font-weight="700" text-anchor="middle">10/10</text>
<text x="24" y="157" fill="#dce3f2" font-size="12" font-family="Arial">aeb_pedestrian_lifecycle | local_l...</text>
<rect x="250" y="136" width="111" height="27" rx="5" fill="rgb(229,177,129)" opacity="0.9"/>
<text x="305.5" y="155" fill="#061018" font-size="12" font-family="Arial" font-weight="700" text-anchor="middle">2/20</text>
<rect x="366" y="136" width="111" height="27" rx="5" fill="rgb(255,170,120)" opacity="0.9"/>
<text x="421.5" y="155" fill="#061018" font-size="12" font-family="Arial" font-weight="700" text-anchor="middle">0/20</text>
<rect x="482" y="136" width="111" height="27" rx="5" fill="rgb(255,170,120)" opacity="0.9"/>
<text x="537.5" y="155" fill="#061018" font-size="12" font-family="Arial" font-weight="700" text-anchor="middle">0/20</text>
<rect x="598" y="136" width="111" height="27" rx="5" fill="rgb(50,226,192)" opacity="0.9"/>
<text x="653.5" y="155" fill="#061018" font-size="12" font-family="Arial" font-weight="700" text-anchor="middle">12/15</text>
<rect x="714" y="136" width="111" height="27" rx="5" fill="rgb(255,170,120)" opacity="0.9"/>
<text x="769.5" y="155" fill="#061018" font-size="12" font-family="Arial" font-weight="700" text-anchor="middle">0/15</text>
<rect x="830" y="136" width="111" height="27" rx="5" fill="rgb(50,226,192)" opacity="0.9"/>
<text x="885.5" y="155" fill="#061018" font-size="12" font-family="Arial" font-weight="700" text-anchor="middle">8/10</text>
<rect x="946" y="136" width="111" height="27" rx="5" fill="rgb(255,170,120)" opacity="0.9"/>
<text x="1001.5" y="155" fill="#061018" font-size="12" font-family="Arial" font-weight="700" text-anchor="middle">0/10</text>
<text x="24" y="189" fill="#dce3f2" font-size="12" font-family="Arial">lane_maintaining_lifecycle | opena...</text>
<rect x="250" y="168" width="111" height="27" rx="5" fill="rgb(0,240,210)" opacity="0.9"/>
<text x="305.5" y="187" fill="#061018" font-size="12" font-family="Arial" font-weight="700" text-anchor="middle">20/20</text>
<rect x="366" y="168" width="111" height="27" rx="5" fill="rgb(50,226,192)" opacity="0.9"/>
<text x="421.5" y="187" fill="#061018" font-size="12" font-family="Arial" font-weight="700" text-anchor="middle">16/20</text>
<rect x="482" y="168" width="111" height="27" rx="5" fill="rgb(0,240,210)" opacity="0.9"/>
<text x="537.5" y="187" fill="#061018" font-size="12" font-family="Arial" font-weight="700" text-anchor="middle">20/20</text>
<rect x="598" y="168" width="111" height="27" rx="5" fill="rgb(0,240,210)" opacity="0.9"/>
<text x="653.5" y="187" fill="#061018" font-size="12" font-family="Arial" font-weight="700" text-anchor="middle">15/15</text>
<rect x="714" y="168" width="111" height="27" rx="5" fill="rgb(0,240,210)" opacity="0.9"/>
<text x="769.5" y="187" fill="#061018" font-size="12" font-family="Arial" font-weight="700" text-anchor="middle">15/15</text>
<rect x="830" y="168" width="111" height="27" rx="5" fill="rgb(0,240,210)" opacity="0.9"/>
<text x="885.5" y="187" fill="#061018" font-size="12" font-family="Arial" font-weight="700" text-anchor="middle">10/10</text>
<rect x="946" y="168" width="111" height="27" rx="5" fill="rgb(0,240,210)" opacity="0.9"/>
<text x="1001.5" y="187" fill="#061018" font-size="12" font-family="Arial" font-weight="700" text-anchor="middle">10/10</text>
<text x="24" y="221" fill="#dce3f2" font-size="12" font-family="Arial">lane_maintaining_lifecycle | local...</text>
<rect x="250" y="200" width="111" height="27" rx="5" fill="rgb(0,240,210)" opacity="0.9"/>
<text x="305.5" y="219" fill="#061018" font-size="12" font-family="Arial" font-weight="700" text-anchor="middle">20/20</text>
<rect x="366" y="200" width="111" height="27" rx="5" fill="rgb(50,226,192)" opacity="0.9"/>
<text x="421.5" y="219" fill="#061018" font-size="12" font-family="Arial" font-weight="700" text-anchor="middle">16/20</text>
<rect x="482" y="200" width="111" height="27" rx="5" fill="rgb(0,240,210)" opacity="0.9"/>
<text x="537.5" y="219" fill="#061018" font-size="12" font-family="Arial" font-weight="700" text-anchor="middle">20/20</text>
<rect x="598" y="200" width="111" height="27" rx="5" fill="rgb(0,240,210)" opacity="0.9"/>
<text x="653.5" y="219" fill="#061018" font-size="12" font-family="Arial" font-weight="700" text-anchor="middle">15/15</text>
<rect x="714" y="200" width="111" height="27" rx="5" fill="rgb(0,240,210)" opacity="0.9"/>
<text x="769.5" y="219" fill="#061018" font-size="12" font-family="Arial" font-weight="700" text-anchor="middle">15/15</text>
<rect x="830" y="200" width="111" height="27" rx="5" fill="rgb(0,240,210)" opacity="0.9"/>
<text x="885.5" y="219" fill="#061018" font-size="12" font-family="Arial" font-weight="700" text-anchor="middle">10/10</text>
<rect x="946" y="200" width="111" height="27" rx="5" fill="rgb(0,240,210)" opacity="0.9"/>
<text x="1001.5" y="219" fill="#061018" font-size="12" font-family="Arial" font-weight="700" text-anchor="middle">10/10</text>
<text x="24" y="253" fill="#dce3f2" font-size="12" font-family="Arial">lane_maintaining_lifecycle | local...</text>
<rect x="250" y="232" width="111" height="27" rx="5" fill="rgb(255,170,120)" opacity="0.9"/>
<text x="305.5" y="251" fill="#061018" font-size="12" font-family="Arial" font-weight="700" text-anchor="middle">0/20</text>
<rect x="366" y="232" width="111" height="27" rx="5" fill="rgb(255,170,120)" opacity="0.9"/>
<text x="421.5" y="251" fill="#061018" font-size="12" font-family="Arial" font-weight="700" text-anchor="middle">0/20</text>
<rect x="482" y="232" width="111" height="27" rx="5" fill="rgb(255,170,120)" opacity="0.9"/>
<text x="537.5" y="251" fill="#061018" font-size="12" font-family="Arial" font-weight="700" text-anchor="middle">0/20</text>
<rect x="598" y="232" width="111" height="27" rx="5" fill="rgb(255,170,120)" opacity="0.9"/>
<text x="653.5" y="251" fill="#061018" font-size="12" font-family="Arial" font-weight="700" text-anchor="middle">0/15</text>
<rect x="714" y="232" width="111" height="27" rx="5" fill="rgb(255,170,120)" opacity="0.9"/>
<text x="769.5" y="251" fill="#061018" font-size="12" font-family="Arial" font-weight="700" text-anchor="middle">0/15</text>
<rect x="830" y="232" width="111" height="27" rx="5" fill="rgb(50,226,192)" opacity="0.9"/>
<text x="885.5" y="251" fill="#061018" font-size="12" font-family="Arial" font-weight="700" text-anchor="middle">8/10</text>
<rect x="946" y="232" width="111" height="27" rx="5" fill="rgb(0,240,210)" opacity="0.9"/>
<text x="1001.5" y="251" fill="#061018" font-size="12" font-family="Arial" font-weight="700" text-anchor="middle">10/10</text>
<text x="24" y="285" fill="#dce3f2" font-size="12" font-family="Arial">random_minimal_risk_maneuver_contr...</text>
<rect x="250" y="264" width="111" height="27" rx="5" fill="rgb(0,240,210)" opacity="0.9"/>
<text x="305.5" y="283" fill="#061018" font-size="12" font-family="Arial" font-weight="700" text-anchor="middle">20/20</text>
<rect x="366" y="264" width="111" height="27" rx="5" fill="rgb(50,226,192)" opacity="0.9"/>
<text x="421.5" y="283" fill="#061018" font-size="12" font-family="Arial" font-weight="700" text-anchor="middle">16/20</text>
<rect x="482" y="264" width="111" height="27" rx="5" fill="rgb(0,240,210)" opacity="0.9"/>
<text x="537.5" y="283" fill="#061018" font-size="12" font-family="Arial" font-weight="700" text-anchor="middle">20/20</text>
<rect x="598" y="264" width="111" height="27" rx="5" fill="rgb(0,240,210)" opacity="0.9"/>
<text x="653.5" y="283" fill="#061018" font-size="12" font-family="Arial" font-weight="700" text-anchor="middle">15/15</text>
<rect x="714" y="264" width="111" height="27" rx="5" fill="rgb(0,240,210)" opacity="0.9"/>
<text x="769.5" y="283" fill="#061018" font-size="12" font-family="Arial" font-weight="700" text-anchor="middle">15/15</text>
<rect x="830" y="264" width="111" height="27" rx="5" fill="rgb(0,240,210)" opacity="0.9"/>
<text x="885.5" y="283" fill="#061018" font-size="12" font-family="Arial" font-weight="700" text-anchor="middle">10/10</text>
<rect x="946" y="264" width="111" height="27" rx="5" fill="rgb(0,240,210)" opacity="0.9"/>
<text x="1001.5" y="283" fill="#061018" font-size="12" font-family="Arial" font-weight="700" text-anchor="middle">10/10</text>
<text x="24" y="317" fill="#dce3f2" font-size="12" font-family="Arial">random_minimal_risk_maneuver_contr...</text>
<rect x="250" y="296" width="111" height="27" rx="5" fill="rgb(38,229,196)" opacity="0.9"/>
<text x="305.5" y="315" fill="#061018" font-size="12" font-family="Arial" font-weight="700" text-anchor="middle">17/20</text>
<rect x="366" y="296" width="111" height="27" rx="5" fill="rgb(0,240,210)" opacity="0.9"/>
<text x="421.5" y="315" fill="#061018" font-size="12" font-family="Arial" font-weight="700" text-anchor="middle">20/20</text>
<rect x="482" y="296" width="111" height="27" rx="5" fill="rgb(0,240,210)" opacity="0.9"/>
<text x="537.5" y="315" fill="#061018" font-size="12" font-family="Arial" font-weight="700" text-anchor="middle">20/20</text>
<rect x="598" y="296" width="111" height="27" rx="5" fill="rgb(0,240,210)" opacity="0.9"/>
<text x="653.5" y="315" fill="#061018" font-size="12" font-family="Arial" font-weight="700" text-anchor="middle">15/15</text>
<rect x="714" y="296" width="111" height="27" rx="5" fill="rgb(0,240,210)" opacity="0.9"/>
<text x="769.5" y="315" fill="#061018" font-size="12" font-family="Arial" font-weight="700" text-anchor="middle">15/15</text>
<rect x="830" y="296" width="111" height="27" rx="5" fill="rgb(0,240,210)" opacity="0.9"/>
<text x="885.5" y="315" fill="#061018" font-size="12" font-family="Arial" font-weight="700" text-anchor="middle">10/10</text>
<rect x="946" y="296" width="111" height="27" rx="5" fill="rgb(0,240,210)" opacity="0.9"/>
<text x="1001.5" y="315" fill="#061018" font-size="12" font-family="Arial" font-weight="700" text-anchor="middle">10/10</text>
<text x="24" y="349" fill="#dce3f2" font-size="12" font-family="Arial">random_minimal_risk_maneuver_contr...</text>
<rect x="250" y="328" width="111" height="27" rx="5" fill="rgb(255,170,120)" opacity="0.9"/>
<text x="305.5" y="347" fill="#061018" font-size="12" font-family="Arial" font-weight="700" text-anchor="middle">0/20</text>
<rect x="366" y="328" width="111" height="27" rx="5" fill="rgb(102,212,174)" opacity="0.9"/>
<text x="421.5" y="347" fill="#061018" font-size="12" font-family="Arial" font-weight="700" text-anchor="middle">12/20</text>
<rect x="482" y="328" width="111" height="27" rx="5" fill="rgb(255,170,120)" opacity="0.9"/>
<text x="537.5" y="347" fill="#061018" font-size="12" font-family="Arial" font-weight="700" text-anchor="middle">0/20</text>
<rect x="598" y="328" width="111" height="27" rx="5" fill="rgb(255,170,120)" opacity="0.9"/>
<text x="653.5" y="347" fill="#061018" font-size="12" font-family="Arial" font-weight="700" text-anchor="middle">0/15</text>
<rect x="714" y="328" width="111" height="27" rx="5" fill="rgb(204,184,138)" opacity="0.9"/>
<text x="769.5" y="347" fill="#061018" font-size="12" font-family="Arial" font-weight="700" text-anchor="middle">3/15</text>
<rect x="830" y="328" width="111" height="27" rx="5" fill="rgb(50,226,192)" opacity="0.9"/>
<text x="885.5" y="347" fill="#061018" font-size="12" font-family="Arial" font-weight="700" text-anchor="middle">8/10</text>
<rect x="946" y="328" width="111" height="27" rx="5" fill="rgb(255,170,120)" opacity="0.9"/>
<text x="1001.5" y="347" fill="#061018" font-size="12" font-family="Arial" font-weight="700" text-anchor="middle">0/10</text>
<text x="24" y="381" fill="#dce3f2" font-size="12" font-family="Arial">random_traffic_sign_recognition_sy...</text>
<rect x="250" y="360" width="111" height="27" rx="5" fill="rgb(0,240,210)" opacity="0.9"/>
<text x="305.5" y="379" fill="#061018" font-size="12" font-family="Arial" font-weight="700" text-anchor="middle">20/20</text>
<rect x="366" y="360" width="111" height="27" rx="5" fill="rgb(50,226,192)" opacity="0.9"/>
<text x="421.5" y="379" fill="#061018" font-size="12" font-family="Arial" font-weight="700" text-anchor="middle">16/20</text>
<rect x="482" y="360" width="111" height="27" rx="5" fill="rgb(0,240,210)" opacity="0.9"/>
<text x="537.5" y="379" fill="#061018" font-size="12" font-family="Arial" font-weight="700" text-anchor="middle">20/20</text>
<rect x="598" y="360" width="111" height="27" rx="5" fill="rgb(0,240,210)" opacity="0.9"/>
<text x="653.5" y="379" fill="#061018" font-size="12" font-family="Arial" font-weight="700" text-anchor="middle">15/15</text>
<rect x="714" y="360" width="111" height="27" rx="5" fill="rgb(0,240,210)" opacity="0.9"/>
<text x="769.5" y="379" fill="#061018" font-size="12" font-family="Arial" font-weight="700" text-anchor="middle">15/15</text>
<rect x="830" y="360" width="111" height="27" rx="5" fill="rgb(0,240,210)" opacity="0.9"/>
<text x="885.5" y="379" fill="#061018" font-size="12" font-family="Arial" font-weight="700" text-anchor="middle">10/10</text>
<rect x="946" y="360" width="111" height="27" rx="5" fill="rgb(0,240,210)" opacity="0.9"/>
<text x="1001.5" y="379" fill="#061018" font-size="12" font-family="Arial" font-weight="700" text-anchor="middle">10/10</text>
<text x="24" y="413" fill="#dce3f2" font-size="12" font-family="Arial">random_traffic_sign_recognition_sy...</text>
<rect x="250" y="392" width="111" height="27" rx="5" fill="rgb(0,240,210)" opacity="0.9"/>
<text x="305.5" y="411" fill="#061018" font-size="12" font-family="Arial" font-weight="700" text-anchor="middle">20/20</text>
<rect x="366" y="392" width="111" height="27" rx="5" fill="rgb(50,226,192)" opacity="0.9"/>
<text x="421.5" y="411" fill="#061018" font-size="12" font-family="Arial" font-weight="700" text-anchor="middle">16/20</text>
<rect x="482" y="392" width="111" height="27" rx="5" fill="rgb(0,240,210)" opacity="0.9"/>
<text x="537.5" y="411" fill="#061018" font-size="12" font-family="Arial" font-weight="700" text-anchor="middle">20/20</text>
<rect x="598" y="392" width="111" height="27" rx="5" fill="rgb(0,240,210)" opacity="0.9"/>
<text x="653.5" y="411" fill="#061018" font-size="12" font-family="Arial" font-weight="700" text-anchor="middle">15/15</text>
<rect x="714" y="392" width="111" height="27" rx="5" fill="rgb(0,240,210)" opacity="0.9"/>
<text x="769.5" y="411" fill="#061018" font-size="12" font-family="Arial" font-weight="700" text-anchor="middle">15/15</text>
<rect x="830" y="392" width="111" height="27" rx="5" fill="rgb(0,240,210)" opacity="0.9"/>
<text x="885.5" y="411" fill="#061018" font-size="12" font-family="Arial" font-weight="700" text-anchor="middle">10/10</text>
<rect x="946" y="392" width="111" height="27" rx="5" fill="rgb(0,240,210)" opacity="0.9"/>
<text x="1001.5" y="411" fill="#061018" font-size="12" font-family="Arial" font-weight="700" text-anchor="middle">10/10</text>
<text x="24" y="445" fill="#dce3f2" font-size="12" font-family="Arial">random_traffic_sign_recognition_sy...</text>
<rect x="250" y="424" width="111" height="27" rx="5" fill="rgb(229,177,129)" opacity="0.9"/>
<text x="305.5" y="443" fill="#061018" font-size="12" font-family="Arial" font-weight="700" text-anchor="middle">2/20</text>
<rect x="366" y="424" width="111" height="27" rx="5" fill="rgb(153,198,156)" opacity="0.9"/>
<text x="421.5" y="443" fill="#061018" font-size="12" font-family="Arial" font-weight="700" text-anchor="middle">8/20</text>
<rect x="482" y="424" width="111" height="27" rx="5" fill="rgb(127,205,165)" opacity="0.9"/>
<text x="537.5" y="443" fill="#061018" font-size="12" font-family="Arial" font-weight="700" text-anchor="middle">10/20</text>
<rect x="598" y="424" width="111" height="27" rx="5" fill="rgb(255,170,120)" opacity="0.9"/>
<text x="653.5" y="443" fill="#061018" font-size="12" font-family="Arial" font-weight="700" text-anchor="middle">0/15</text>
<rect x="714" y="424" width="111" height="27" rx="5" fill="rgb(255,170,120)" opacity="0.9"/>
<text x="769.5" y="443" fill="#061018" font-size="12" font-family="Arial" font-weight="700" text-anchor="middle">0/15</text>
<rect x="830" y="424" width="111" height="27" rx="5" fill="rgb(50,226,192)" opacity="0.9"/>
<text x="885.5" y="443" fill="#061018" font-size="12" font-family="Arial" font-weight="700" text-anchor="middle">8/10</text>
<rect x="946" y="424" width="111" height="27" rx="5" fill="rgb(0,240,210)" opacity="0.9"/>
<text x="1001.5" y="443" fill="#061018" font-size="12" font-family="Arial" font-weight="700" text-anchor="middle">10/10</text>
</svg>