<svg xmlns="http://www.w3.org/2000/svg" width="1092" height="270" viewBox="0 0 1092 270">
<rect width="100%" height="100%" fill="#05070a"/>
<text x="28" y="34" fill="#ffffff" font-size="22" font-family="Arial" font-weight="700">Rubric Category Heatmap</text>
<text x="308.0" y="54" fill="#cfd6e6" font-size="12" font-family="Arial" text-anchor="middle">Sections</text>
<text x="424.0" y="54" fill="#cfd6e6" font-size="12" font-family="Arial" text-anchor="middle">HARA</text>
<text x="540.0" y="54" fill="#cfd6e6" font-size="12" font-family="Arial" text-anchor="middle">ISO 26262</text>
<text x="656.0" y="54" fill="#cfd6e6" font-size="12" font-family="Arial" text-anchor="middle">SOTIF</text>
<text x="772.0" y="54" fill="#cfd6e6" font-size="12" font-family="Arial" text-anchor="middle">ISO 8800</text>
<text x="888.0" y="54" fill="#cfd6e6" font-size="12" font-family="Arial" text-anchor="middle">Engineering</text>
<text x="1004.0" y="54" fill="#cfd6e6" font-size="12" font-family="Arial" text-anchor="middle">Hallucination</text>
<text x="24" y="93" fill="#dce3f2" font-size="12" font-family="Arial">aeb_pedestrian_lifecycle | local_b...</text>
<rect x="250" y="72" width="111" height="27" rx="5" fill="rgb(0,240,210)" opacity="0.9"/>
<text x="305.5" y="91" fill="#061018" font-size="12" font-family="Arial" font-weight="700" text-anchor="middle">20/20</text>
<rect x="366" y="72" width="111" height="27" rx="5" fill="rgb(50,226,192)" opacity="0.9"/>
<text x="421.5" y="91" fill="#061018" font-size="12" font-family="Arial" font-weight="700" text-anchor="middle">16/20</text>
<rect x="482" y="72" width="111" height="27" rx="5" fill="rgb(0,240,210)" opacity="0.9"/>
<text x="537.5" y="91" fill="#061018" font-size="12" font-family="Arial" font-weight="700" text-anchor="middle">20/20</text>
<rect x="598" y="72" width="111" height="27" rx="5" fill="rgb(0,240,210)" opacity="0.9"/>
<text x="653.5" y="91" fill="#061018" font-size="12" font-family="Arial" font-weight="700" text-anchor="middle">15/15</text>
<rect x="714" y="72" width="111" height="27" rx="5" fill="rgb(0,240,210)" opacity="0.9"/>
<text x="769.5" y="91" fill="#061018" font-size="12" font-family="Arial" font-weight="700" text-anchor="middle">15/15</text>
<rect x="830" y="72" width="111" height="27" rx="5" fill="rgb(0,240,210)" opacity="0.9"/>
<text x="885.5" y="91" fill="#061018" font-size="12" font-family="Arial" font-weight="700" text-anchor="middle">10/10</text>
<rect x="946" y="72" width="111" height="27" rx="5" fill="rgb(0,240,210)" opacity="0.9"/>
<text x="1001.5" y="91" fill="#061018" font-size="12" font-family="Arial" font-weight="700" text-anchor="middle">10/10</text>
<text x="24" y="125" fill="#dce3f2" font-size="12" font-family="Arial">lane_maintaining_lifecycle | local...</text>
<rect x="250" y="104" width="111" height="27" rx="5" fill="rgb(0,240,210)" opacity="0.9"/>
<text x="305.5" y="123" fill="#061018" font-size="12" font-family="Arial" font-weight="700" text-anchor="middle">20/20</text>
<rect x="366" y="104" width="111" height="27" rx="5" fill="rgb(50,226,192)" opacity="0.9"/>
<text x="421.5" y="123" fill="#061018" font-size="12" font-family="Arial" font-weight="700" text-anchor="middle">16/20</text>
<rect x="482" y="104" width="111" height="27" rx="5" fill="rgb(0,240,210)" opacity="0.9"/>
<text x="537.5" y="123" fill="#061018" font-size="12" font-family="Arial" font-weight="700" text-anchor="middle">20/20</text>
<rect x="598" y="104" width="111" height="27" rx="5" fill="rgb(0,240,210)" opacity="0.9"/>
<text x="653.5" y="123" fill="#061018" font-size="12" font-family="Arial" font-weight="700" text-anchor="middle">15/15</text>
<rect x="714" y="104" width="111" height="27" rx="5" fill="rgb(0,240,210)" opacity="0.9"/>
<text x="769.5" y="123" fill="#061018" font-size="12" font-family="Arial" font-weight="700" text-anchor="middle">15/15</text>
<rect x="830" y="104" width="111" height="27" rx="5" fill="rgb(0,240,210)" opacity="0.9"/>
<text x="885.5" y="123" fill="#061018" font-size="12" font-family="Arial" font-weight="700" text-anchor="middle">10/10</text>
<rect x="946" y="104" width="111" height="27" rx="5" fill="rgb(0,240,210)" opacity="0.9"/>
<text x="1001.5" y="123" fill="#061018" font-size="12" font-family="Arial" font-weight="700" text-anchor="middle">10/10</text>
<text x="24" y="157" fill="#dce3f2" font-size="12" font-family="Arial">random_rear_cross_traffic_alert_sy...</text>
<rect x="250" y="136" width="111" height="27" rx="5" fill="rgb(38,229,196)" opacity="0.9"/>
<text x="305.5" y="155" fill="#061018" font-size="12" font-family="Arial" font-weight="700" text-anchor="middle">17/20</text>
<rect x="366" y="136" width="111" height="27" rx="5" fill="rgb(50,226,192)" opacity="0.9"/>
<text x="421.5" y="155" fill="#061018" font-size="12" font-family="Arial" font-weight="700" text-anchor="middle">16/20</text>
<rect x="482" y="136" width="111" height="27" rx="5" fill="rgb(0,240,210)" opacity="0.9"/>
<text x="537.5" y="155" fill="#061018" font-size="12" font-family="Arial" font-weight="700" text-anchor="middle">20/20</text>
<rect x="598" y="136" width="111" height="27" rx="5" fill="rgb(0,240,210)" opacity="0.9"/>
<text x="653.5" y="155" fill="#061018" font-size="12" font-family="Arial" font-weight="700" text-anchor="middle">15/15</text>
<rect x="714" y="136" width="111" height="27" rx="5" fill="rgb(0,240,210)" opacity="0.9"/>
<text x="769.5" y="155" fill="#061018" font-size="12" font-family="Arial" font-weight="700" text-anchor="middle">15/15</text>
<rect x="830" y="136" width="111" height="27" rx="5" fill="rgb(0,240,210)" opacity="0.9"/>
<text x="885.5" y="155" fill="#061018" font-size="12" font-family="Arial" font-weight="700" text-anchor="middle">10/10</text>
<rect x="946" y="136" width="111" height="27" rx="5" fill="rgb(0,240,210)" opacity="0.9"/>
<text x="1001.5" y="155" fill="#061018" font-size="12" font-family="Arial" font-weight="700" text-anchor="middle">10/10</text>
<text x="24" y="189" fill="#dce3f2" font-size="12" font-family="Arial">random_blind_spot_monitoring_syste...</text>
<rect x="250" y="168" width="111" height="27" rx="5" fill="rgb(0,240,210)" opacity="0.9"/>
<text x="305.5" y="187" fill="#061018" font-size="12" font-family="Arial" font-weight="700" text-anchor="middle">20/20</text>
<rect x="366" y="168" width="111" height="27" rx="5" fill="rgb(0,240,210)" opacity="0.9"/>
<text x="421.5" y="187" fill="#061018" font-size="12" font-family="Arial" font-weight="700" text-anchor="middle">20/20</text>
<rect x="482" y="168" width="111" height="27" rx="5" fill="rgb(0,240,210)" opacity="0.9"/>
<text x="537.5" y="187" fill="#061018" font-size="12" font-family="Arial" font-weight="700" text-anchor="middle">20/20</text>
<rect x="598" y="168" width="111" height="27" rx="5" fill="rgb(0,240,210)" opacity="0.9"/>
<text x="653.5" y="187" fill="#061018" font-size="12" font-family="Arial" font-weight="700" text-anchor="middle">15/15</text>
<rect x="714" y="168" width="111" height="27" rx="5" fill="rgb(0,240,210)" opacity="0.9"/>
<text x="769.5" y="187" fill="#061018" font-size="12" font-family="Arial" font-weight="700" text-anchor="middle">15/15</text>
<rect x="830" y="168" width="111" height="27" rx="5" fill="rgb(0,240,210)" opacity="0.9"/>
<text x="885.5" y="187" fill="#061018" font-size="12" font-family="Arial" font-weight="700" text-anchor="middle">10/10</text>
<rect x="946" y="168" width="111" height="27" rx="5" fill="rgb(50,226,192)" opacity="0.9"/>
<text x="1001.5" y="187" fill="#061018" font-size="12" font-family="Arial" font-weight="700" text-anchor="middle">8/10</text>
</svg>