<svg xmlns="http://www.w3.org/2000/svg" width="920" height="430" viewBox="0 0 920 430">
<rect width="100%" height="100%" fill="#05070a"/>
<text x="28" y="34" fill="#ffffff" font-size="22" font-family="Arial" font-weight="700">Model Score Comparison</text>
<line x1="90" y1="330.0" x2="890" y2="330.0" stroke="#29313d" stroke-width="1"/>
<text x="42" y="335.0" fill="#aeb7c8" font-size="12" font-family="Arial">0%</text>
<line x1="90" y1="278.0" x2="890" y2="278.0" stroke="#29313d" stroke-width="1"/>
<text x="42" y="283.0" fill="#aeb7c8" font-size="12" font-family="Arial">20%</text>
<line x1="90" y1="226.0" x2="890" y2="226.0" stroke="#29313d" stroke-width="1"/>
<text x="42" y="231.0" fill="#aeb7c8" font-size="12" font-family="Arial">40%</text>
<line x1="90" y1="174.0" x2="890" y2="174.0" stroke="#29313d" stroke-width="1"/>
<text x="42" y="179.0" fill="#aeb7c8" font-size="12" font-family="Arial">60%</text>
<line x1="90" y1="122.0" x2="890" y2="122.0" stroke="#29313d" stroke-width="1"/>
<text x="42" y="127.0" fill="#aeb7c8" font-size="12" font-family="Arial">80%</text>
<line x1="90" y1="70.0" x2="890" y2="70.0" stroke="#29313d" stroke-width="1"/>
<text x="42" y="75.0" fill="#aeb7c8" font-size="12" font-family="Arial">100%</text>
<rect x="108.0" y="79.4" width="34.0" height="250.6" rx="4" fill="#ffffff" opacity="0.9"/>
<text x="125.0" y="73.4" fill="#ffffff" font-size="11" font-family="Arial" text-anchor="middle">96.4</text>
<rect x="150.0" y="79.4" width="34.0" height="250.6" rx="4" fill="#9fb7ff" opacity="0.9"/>
<text x="167.0" y="73.4" fill="#ffffff" font-size="11" font-family="Arial" text-anchor="middle">96.4</text>
<rect x="192.0" y="299.3" width="34.0" height="30.7" rx="4" fill="#7fffe1" opacity="0.9"/>
<text x="209.0" y="293.3" fill="#ffffff" font-size="11" font-family="Arial" text-anchor="middle">11.8</text>
<text x="108.0" y="364" fill="#cfd6e6" font-size="12" font-family="Arial">aeb_pedestrian_lifecycle</text>
<rect x="305.5" y="79.4" width="34.0" height="250.6" rx="4" fill="#ffffff" opacity="0.9"/>
<text x="322.5" y="73.4" fill="#ffffff" font-size="11" font-family="Arial" text-anchor="middle">96.4</text>
<rect x="347.5" y="79.4" width="34.0" height="250.6" rx="4" fill="#9fb7ff" opacity="0.9"/>
<text x="364.5" y="73.4" fill="#ffffff" font-size="11" font-family="Arial" text-anchor="middle">96.4</text>
<rect x="389.5" y="268.6" width="34.0" height="61.4" rx="4" fill="#7fffe1" opacity="0.9"/>
<text x="406.5" y="262.6" fill="#ffffff" font-size="11" font-family="Arial" text-anchor="middle">23.6</text>
<text x="305.5" y="364" fill="#cfd6e6" font-size="12" font-family="Arial">lane_maintaining_lifecyc...</text>
<rect x="503.0" y="79.4" width="34.0" height="250.6" rx="4" fill="#ffffff" opacity="0.9"/>
<text x="520.0" y="73.4" fill="#ffffff" font-size="11" font-family="Arial" text-anchor="middle">96.4</text>
<rect x="545.0" y="84.3" width="34.0" height="245.7" rx="4" fill="#9fb7ff" opacity="0.9"/>
<text x="562.0" y="78.3" fill="#ffffff" font-size="11" font-family="Arial" text-anchor="middle">94.5</text>
<rect x="587.0" y="297.0" width="34.0" height="33.0" rx="4" fill="#7fffe1" opacity="0.9"/>
<text x="604.0" y="291.0" fill="#ffffff" font-size="11" font-family="Arial" text-anchor="middle">12.7</text>
<text x="503.0" y="364" fill="#cfd6e6" font-size="12" font-family="Arial">random_automated_parking...</text>
<rect x="700.5" y="79.4" width="34.0" height="250.6" rx="4" fill="#ffffff" opacity="0.9"/>
<text x="717.5" y="73.4" fill="#ffffff" font-size="11" font-family="Arial" text-anchor="middle">96.4</text>
<rect x="742.5" y="84.3" width="34.0" height="245.7" rx="4" fill="#9fb7ff" opacity="0.9"/>
<text x="759.5" y="78.3" fill="#ffffff" font-size="11" font-family="Arial" text-anchor="middle">94.5</text>
<rect x="784.5" y="299.3" width="34.0" height="30.7" rx="4" fill="#7fffe1" opacity="0.9"/>
<text x="801.5" y="293.3" fill="#ffffff" font-size="11" font-family="Arial" text-anchor="middle">11.8</text>
<text x="700.5" y="364" fill="#cfd6e6" font-size="12" font-family="Arial">random_automated_parking...</text>
<rect x="560" y="16" width="14" height="14" rx="3" fill="#ffffff"/>
<text x="582" y="28" fill="#dce3f2" font-size="12" font-family="Arial">OpenAI - advanced analysis</text>
<rect x="560" y="38" width="14" height="14" rx="3" fill="#9fb7ff"/>
<text x="582" y="50" fill="#dce3f2" font-size="12" font-family="Arial">Local Qwen - before fine-tuning</text>
<rect x="560" y="60" width="14" height="14" rx="3" fill="#7fffe1"/>
<text x="582" y="72" fill="#dce3f2" font-size="12" font-family="Arial">Local Qwen - after LoRA fine-tuning</text>
</svg>